<?xml version="1.0" encoding="UTF-8"?>
<!DOCTYPE svg
PUBLIC "-//W3C//DTD SVG 1.1//EN"
       "http://www.w3.org/Graphics/SVG/1.1/DTD/svg11.dtd">
<svg viewBox="295 65 1037 525" width="742px" height="460px" xmlns="http://www.w3.org/2000/svg" version="1.1">
   <line x1="917" y1="246" x2="907" y2="246" style="stroke:#0bf;stroke-width:1;"/>
   <line x1="413" y1="110" x2="403" y2="110" style="stroke:#0bf;stroke-width:1;"/>
   <line x1="907" y1="246" x2="413" y2="110" style="stroke:#0bf;stroke-width:1;"/>
   <line x1="909.5" y1="246" x2="913.03553390593" y2="249.53553390593" style="stroke:#0bf;stroke-width:2;"/>
   <line x1="909.5" y1="246" x2="913.03553390593" y2="242.46446609407" style="stroke:#0bf;stroke-width:2;"/>
   <line x1="408" y1="110" x2="411.53553390593" y2="113.53553390593" style="stroke:#0bf;stroke-width:2;"/>
   <line x1="408" y1="110" x2="411.53553390593" y2="106.46446609407" style="stroke:#0bf;stroke-width:2;"/>
   <line x1="596" y1="303" x2="586" y2="303" style="stroke:#bbb;stroke-width:1;"/>
   <line x1="418" y1="306" x2="408" y2="306" style="stroke:#bbb;stroke-width:1;"/>
   <line x1="586" y1="303" x2="418" y2="306" style="stroke:#bbb;stroke-width:1;"/>
   <line x1="588.5" y1="303" x2="592.03553390593" y2="306.53553390593" style="stroke:#bbb;stroke-width:2;"/>
   <line x1="588.5" y1="303" x2="592.03553390593" y2="299.46446609407" style="stroke:#bbb;stroke-width:2;"/>
   <line x1="413" y1="306" x2="416.53553390593" y2="309.53553390593" style="stroke:#bbb;stroke-width:2;"/>
   <line x1="413" y1="306" x2="416.53553390593" y2="302.46446609407" style="stroke:#bbb;stroke-width:2;"/>
   <line x1="699" y1="323" x2="709" y2="323" style="stroke:#cb0;stroke-width:1;"/>
   <line x1="907" y1="206" x2="917" y2="206" style="stroke:#cb0;stroke-width:1;"/>
   <line x1="709" y1="323" x2="907" y2="206" style="stroke:#cb0;stroke-width:1;"/>
   <line x1="706.5" y1="323" x2="702.96446609407" y2="326.53553390593" style="stroke:#cb0;stroke-width:2;"/>
   <line x1="706.5" y1="323" x2="702.96446609407" y2="319.46446609407" style="stroke:#cb0;stroke-width:2;"/>
   <line x1="912" y1="206" x2="908.46446609407" y2="209.53553390593" style="stroke:#cb0;stroke-width:2;"/>
   <line x1="912" y1="206" x2="908.46446609407" y2="202.46446609407" style="stroke:#cb0;stroke-width:2;"/>
   <line x1="620" y1="460" x2="610" y2="460" style="stroke:#0b0;stroke-width:1;"/>
   <line x1="586" y1="283" x2="596" y2="283" style="stroke:#0b0;stroke-width:1;"/>
   <line x1="610" y1="460" x2="586" y2="283" style="stroke:#0b0;stroke-width:1;"/>
   <line x1="612.5" y1="460" x2="616.03553390593" y2="463.53553390593" style="stroke:#0b0;stroke-width:2;"/>
   <line x1="612.5" y1="460" x2="616.03553390593" y2="456.46446609407" style="stroke:#0b0;stroke-width:2;"/>
   <line x1="591" y1="283" x2="587.46446609407" y2="286.53553390593" style="stroke:#0b0;stroke-width:2;"/>
   <line x1="591" y1="283" x2="587.46446609407" y2="279.46446609407" style="stroke:#0b0;stroke-width:2;"/>
   <rect width="105" height="20" x="917" y="176" style="fill:#007;stroke:black;"/>
   <text width="105" height="20" x="922" y="190" style="fill:#fff;" font-family="Arial" font-size="16px"> courses</text>
   <rect width="105" height="20" x="917" y="196" style="fill:#aea;stroke:black;"/>
   <text width="105" height="20" x="922" y="210" style="fill:black;" font-family="Arial" font-size="16px">CourseID</text>
   <rect width="105" height="20" x="917" y="216" style="fill:none;stroke:black;"/>
   <text width="105" height="20" x="922" y="230" style="fill:black;" font-family="Arial" font-size="16px">CourseName</text>
   <rect width="105" height="20" x="917" y="236" style="fill:#aea;stroke:black;"/>
   <text width="105" height="20" x="922" y="250" style="fill:black;" font-family="Arial" font-size="16px">InstructorID</text>
   <rect width="105" height="20" x="917" y="256" style="fill:none;stroke:black;"/>
   <text width="105" height="20" x="922" y="270" style="fill:black;" font-family="Arial" font-size="16px">Faculty</text>
   <rect width="105" height="20" x="917" y="276" style="fill:none;stroke:black;"/>
   <text width="105" height="20" x="922" y="290" style="fill:black;" font-family="Arial" font-size="16px">StartDate</text>
   <rect width="105" height="20" x="917" y="296" style="fill:none;stroke:black;"/>
   <text width="105" height="20" x="922" y="310" style="fill:black;" font-family="Arial" font-size="16px">EndDate</text>
   <rect width="105" height="20" x="917" y="316" style="fill:none;stroke:black;"/>
   <text width="105" height="20" x="922" y="330" style="fill:black;" font-family="Arial" font-size="16px">Credits</text>
   <rect width="103" height="20" x="596" y="253" style="fill:#007;stroke:black;"/>
   <text width="103" height="20" x="601" y="267" style="fill:#fff;" font-family="Arial" font-size="16px"> enrollments</text>
   <rect width="103" height="20" x="596" y="273" style="fill:#aea;stroke:black;"/>
   <text width="103" height="20" x="601" y="287" style="fill:black;" font-family="Arial" font-size="16px">EnrollmentID</text>
   <rect width="103" height="20" x="596" y="293" style="fill:#aea;stroke:black;"/>
   <text width="103" height="20" x="601" y="307" style="fill:black;" font-family="Arial" font-size="16px">StudentID</text>
   <rect width="103" height="20" x="596" y="313" style="fill:#aea;stroke:black;"/>
   <text width="103" height="20" x="601" y="327" style="fill:black;" font-family="Arial" font-size="16px">CourseID</text>
   <rect width="103" height="20" x="596" y="333" style="fill:none;stroke:black;"/>
   <text width="103" height="20" x="601" y="347" style="fill:black;" font-family="Arial" font-size="16px">Status</text>
   <rect width="103" height="20" x="596" y="353" style="fill:none;stroke:black;"/>
   <text width="103" height="20" x="601" y="367" style="fill:black;" font-family="Arial" font-size="16px">Date</text>
   <rect width="103" height="20" x="620" y="430" style="fill:#007;stroke:black;"/>
   <text width="103" height="20" x="625" y="444" style="fill:#fff;" font-family="Arial" font-size="16px"> grades</text>
   <rect width="103" height="20" x="620" y="450" style="fill:#aea;stroke:black;"/>
   <text width="103" height="20" x="625" y="464" style="fill:black;" font-family="Arial" font-size="16px">EnrollmentID</text>
   <rect width="103" height="20" x="620" y="470" style="fill:none;stroke:black;"/>
   <text width="103" height="20" x="625" y="484" style="fill:black;" font-family="Arial" font-size="16px">Grade</text>
   <rect width="103" height="20" x="620" y="490" style="fill:none;stroke:black;"/>
   <text width="103" height="20" x="625" y="504" style="fill:black;" font-family="Arial" font-size="16px">Date</text>
   <rect width="93" height="20" x="310" y="80" style="fill:#007;stroke:black;"/>
   <text width="93" height="20" x="315" y="94" style="fill:#fff;" font-family="Arial" font-size="16px"> instructors</text>
   <rect width="93" height="20" x="310" y="100" style="fill:#aea;stroke:black;"/>
   <text width="93" height="20" x="315" y="114" style="fill:black;" font-family="Arial" font-size="16px">InstructorID</text>
   <rect width="93" height="20" x="310" y="120" style="fill:none;stroke:black;"/>
   <text width="93" height="20" x="315" y="134" style="fill:black;" font-family="Arial" font-size="16px">FirstName</text>
   <rect width="93" height="20" x="310" y="140" style="fill:none;stroke:black;"/>
   <text width="93" height="20" x="315" y="154" style="fill:black;" font-family="Arial" font-size="16px">LastName</text>
   <rect width="93" height="20" x="310" y="160" style="fill:none;stroke:black;"/>
   <text width="93" height="20" x="315" y="174" style="fill:black;" font-family="Arial" font-size="16px">Email</text>
   <rect width="93" height="20" x="310" y="180" style="fill:none;stroke:black;"/>
   <text width="93" height="20" x="315" y="194" style="fill:black;" font-family="Arial" font-size="16px">Faculty</text>
   <rect width="94" height="20" x="314" y="276" style="fill:#007;stroke:black;"/>
   <text width="94" height="20" x="319" y="290" style="fill:#fff;" font-family="Arial" font-size="16px"> students</text>
   <rect width="94" height="20" x="314" y="296" style="fill:#aea;stroke:black;"/>
   <text width="94" height="20" x="319" y="310" style="fill:black;" font-family="Arial" font-size="16px">StudentID</text>
   <rect width="94" height="20" x="314" y="316" style="fill:none;stroke:black;"/>
   <text width="94" height="20" x="319" y="330" style="fill:black;" font-family="Arial" font-size="16px">FirstName</text>
   <rect width="94" height="20" x="314" y="336" style="fill:none;stroke:black;"/>
   <text width="94" height="20" x="319" y="350" style="fill:black;" font-family="Arial" font-size="16px">LastName</text>
   <rect width="94" height="20" x="314" y="356" style="fill:none;stroke:black;"/>
   <text width="94" height="20" x="319" y="370" style="fill:black;" font-family="Arial" font-size="16px">Email</text>
   <rect width="94" height="20" x="314" y="376" style="fill:none;stroke:black;"/>
   <text width="94" height="20" x="319" y="390" style="fill:black;" font-family="Arial" font-size="16px">DateOfBirth</text>
   <rect width="94" height="20" x="314" y="396" style="fill:none;stroke:black;"/>
   <text width="94" height="20" x="319" y="410" style="fill:black;" font-family="Arial" font-size="16px">Address</text>
   <rect width="94" height="20" x="314" y="416" style="fill:none;stroke:black;"/>
   <text width="94" height="20" x="319" y="430" style="fill:black;" font-family="Arial" font-size="16px">Program</text>
   <rect width="94" height="20" x="314" y="436" style="fill:none;stroke:black;"/>
   <text width="94" height="20" x="319" y="450" style="fill:black;" font-family="Arial" font-size="16px">Year</text>
   <rect width="94" height="20" x="314" y="456" style="fill:none;stroke:black;"/>
   <text width="94" height="20" x="319" y="470" style="fill:black;" font-family="Arial" font-size="16px">GPA</text>
</svg>
